<?xml version="1.0" encoding="UTF-8" standalone="no"?>
<!-- Created with Inkscape (http://www.inkscape.org/) -->

<svg
   xmlns:dc="http://purl.org/dc/elements/1.1/"
   xmlns:cc="http://creativecommons.org/ns#"
   xmlns:rdf="http://www.w3.org/1999/02/22-rdf-syntax-ns#"
   xmlns:svg="http://www.w3.org/2000/svg"
   xmlns="http://www.w3.org/2000/svg"
   xmlns:sodipodi="http://sodipodi.sourceforge.net/DTD/sodipodi-0.dtd"
   xmlns:inkscape="http://www.inkscape.org/namespaces/inkscape"
   width="18"
   height="18"
   id="svg2"
   version="1.1"
   inkscape:version="0.47 r22583"
   sodipodi:docname="configure.svg"
   inkscape:export-filename="/home/yerp/configure.png"
   inkscape:export-xdpi="90"
   inkscape:export-ydpi="90">
  <defs
     id="defs4">
    <inkscape:perspective
       sodipodi:type="inkscape:persp3d"
       inkscape:vp_x="0 : 526.18109 : 1"
       inkscape:vp_y="0 : 1000 : 0"
       inkscape:vp_z="744.09448 : 526.18109 : 1"
       inkscape:persp3d-origin="372.04724 : 350.78739 : 1"
       id="perspective10" />
    <inkscape:perspective
       id="perspective2839"
       inkscape:persp3d-origin="0.5 : 0.33333333 : 1"
       inkscape:vp_z="1 : 0.5 : 1"
       inkscape:vp_y="0 : 1000 : 0"
       inkscape:vp_x="0 : 0.5 : 1"
       sodipodi:type="inkscape:persp3d" />
    <inkscape:perspective
       id="perspective2839-4"
       inkscape:persp3d-origin="0.5 : 0.33333333 : 1"
       inkscape:vp_z="1 : 0.5 : 1"
       inkscape:vp_y="0 : 1000 : 0"
       inkscape:vp_x="0 : 0.5 : 1"
       sodipodi:type="inkscape:persp3d" />
    <inkscape:perspective
       id="perspective2839-6"
       inkscape:persp3d-origin="0.5 : 0.33333333 : 1"
       inkscape:vp_z="1 : 0.5 : 1"
       inkscape:vp_y="0 : 1000 : 0"
       inkscape:vp_x="0 : 0.5 : 1"
       sodipodi:type="inkscape:persp3d" />
    <inkscape:perspective
       id="perspective2879"
       inkscape:persp3d-origin="0.5 : 0.33333333 : 1"
       inkscape:vp_z="1 : 0.5 : 1"
       inkscape:vp_y="0 : 1000 : 0"
       inkscape:vp_x="0 : 0.5 : 1"
       sodipodi:type="inkscape:persp3d" />
    <inkscape:perspective
       id="perspective3698"
       inkscape:persp3d-origin="0.5 : 0.33333333 : 1"
       inkscape:vp_z="1 : 0.5 : 1"
       inkscape:vp_y="0 : 1000 : 0"
       inkscape:vp_x="0 : 0.5 : 1"
       sodipodi:type="inkscape:persp3d" />
    <inkscape:perspective
       id="perspective3729"
       inkscape:persp3d-origin="0.5 : 0.33333333 : 1"
       inkscape:vp_z="1 : 0.5 : 1"
       inkscape:vp_y="0 : 1000 : 0"
       inkscape:vp_x="0 : 0.5 : 1"
       sodipodi:type="inkscape:persp3d" />
    <inkscape:perspective
       id="perspective3777"
       inkscape:persp3d-origin="0.5 : 0.33333333 : 1"
       inkscape:vp_z="1 : 0.5 : 1"
       inkscape:vp_y="0 : 1000 : 0"
       inkscape:vp_x="0 : 0.5 : 1"
       sodipodi:type="inkscape:persp3d" />
    <inkscape:perspective
       id="perspective3860"
       inkscape:persp3d-origin="0.5 : 0.33333333 : 1"
       inkscape:vp_z="1 : 0.5 : 1"
       inkscape:vp_y="0 : 1000 : 0"
       inkscape:vp_x="0 : 0.5 : 1"
       sodipodi:type="inkscape:persp3d" />
  </defs>
  <sodipodi:namedview
     id="base"
     pagecolor="#ffffff"
     bordercolor="#666666"
     borderopacity="1.0"
     inkscape:pageopacity="0"
     inkscape:pageshadow="2"
     inkscape:zoom="16"
     inkscape:cx="18.430638"
     inkscape:cy="7.9669278"
     inkscape:document-units="px"
     inkscape:current-layer="layer1"
     showgrid="false"
     inkscape:window-width="971"
     inkscape:window-height="781"
     inkscape:window-x="48"
     inkscape:window-y="168"
     inkscape:window-maximized="0" />
  <metadata
     id="metadata7">
    <rdf:RDF>
      <cc:Work
         rdf:about="">
        <dc:format>image/svg+xml</dc:format>
        <dc:type
           rdf:resource="http://purl.org/dc/dcmitype/StillImage" />
        <dc:title></dc:title>
      </cc:Work>
    </rdf:RDF>
  </metadata>
  <g
     inkscape:label="Layer 1"
     inkscape:groupmode="layer"
     id="layer1"
     transform="translate(0,-1034.3622)">
    <g
       id="g3880"
       transform="matrix(1.0400671,0,0,1.0594467,-0.37442415,-61.92387)">
      <path
         inkscape:export-ydpi="90"
         inkscape:export-xdpi="90"
         inkscape:export-filename="/home/yerp/configure.png"
         id="path2822-8-9-0"
         d="m 7.4345836,1034.7722 0,2.0891 c -0.5607957,0.1424 -1.0945305,0.3554 -1.5883399,0.6269 l -1.5580603,-1.5297 -2.3260787,2.2863 1.4919937,1.4675 c -0.2845001,0.4392 -0.5177164,0.9143 -0.6909418,1.4158 l -2.4031566,0 0,3.2322 2.1443976,0 c 0.1204382,0.696 0.3505303,1.3532 0.6744241,1.9566 l -1.6048564,1.5755 2.3288326,2.2836 1.4782297,-1.4513 c 0.6185775,0.4079 1.3122937,0.7168 2.053556,0.9053 l 0,2.1322 3.2922954,0 0,-2.1132 c 0.719168,-0.1726 1.391024,-0.4581 1.9985,-0.8378 l 1.472723,1.4485 2.328833,-2.2863 -1.538789,-1.5079 c 0.367465,-0.6431 0.626472,-1.3515 0.757007,-2.1052 l 1.921423,0 0,-3.2321 -2.180182,0 c -0.191883,-0.5552 -0.454599,-1.0785 -0.781785,-1.5565 l 1.434188,-1.408 -2.32608,-2.2861 -1.560812,1.5323 c -0.477403,-0.2472 -0.988387,-0.4386 -1.525026,-0.5676 l 0,-2.0701 -3.2922954,0 z m 1.7342359,3.7565 c 2.6046145,0 4.7154705,2.0723 4.7154705,4.6292 0,2.557 -2.110856,4.6292 -4.7154705,4.6292 -2.6046164,0 -4.7154714,-2.0722 -4.7154714,-4.6292 0,-2.557 2.110855,-4.6292 4.7154714,-4.6292 z"
         style="fill:#000000;fill-opacity:1;stroke:none" />
      <g
         transform="matrix(0.66775157,0,0,0.70905124,19.556376,294.84331)"
         id="g3796">
        <path
           style="fill:#000000;fill-opacity:1;stroke:none"
           d="m -15.5625,20.21875 c -3.643731,0 -6.625,2.950019 -6.625,6.59375 0,3.643731 2.981269,6.59375 6.625,6.59375 3.643731,0 6.59375,-2.950019 6.59375,-6.59375 0,-3.643731 -2.950019,-6.59375 -6.59375,-6.59375 z m 0.03125,1.71875 c 2.810735,0 5.09375,2.283015 5.09375,5.09375 0,2.810735 -2.283015,5.09375 -5.09375,5.09375 -2.810735,0 -5.09375,-2.283015 -5.09375,-5.09375 0,-2.810735 2.283015,-5.09375 5.09375,-5.09375 z"
           transform="translate(0,1028.3622)"
           id="path3767" />
      </g>
      <path
         inkscape:export-ydpi="90"
         inkscape:export-xdpi="90"
         inkscape:export-filename="/home/yerp/configure.png"
         id="path2822-8-9"
         d="m 7.577748,1035.2719 0,1.9636 c -0.5118875,0.134 -0.9990761,0.334 -1.4498201,0.5892 l -1.4221805,-1.4377 -2.1232202,2.149 1.361876,1.3793 c -0.2596876,0.4129 -0.4725664,0.8594 -0.6306844,1.3309 l -2.1935755,0 0,3.0382 1.9573825,0 c 0.1099359,0.654 0.3199611,1.2719 0.6156087,1.8391 l -1.4648966,1.4808 2.125733,2.1465 1.3493131,-1.3641 c 0.5646317,0.3834 1.197848,0.6738 1.874464,0.8509 l 0,2.0042 3.005172,0 0,-1.9863 c 0.65645,-0.1624 1.269713,-0.4307 1.82421,-0.7875 l 1.344287,1.3615 2.125734,-2.149 -1.404592,-1.4174 c 0.33542,-0.6045 0.571838,-1.2705 0.690989,-1.9787 l 1.753855,0 0,-3.038 -1.990048,0 c -0.175149,-0.522 -0.414953,-1.0139 -0.713603,-1.4632 l 1.30911,-1.3235 -2.12322,-2.1488 -1.424694,1.4402 c -0.435768,-0.2322 -0.902188,-0.4122 -1.392028,-0.5334 l 0,-1.9458 -3.005172,0 z m 1.582992,3.5308 c 2.377465,0 4.304232,1.948 4.304232,4.3513 0,2.4035 -1.926767,4.3514 -4.304232,4.3514 -2.3774653,0 -4.3042317,-1.9479 -4.3042317,-4.3514 0,-2.4034 1.9267664,-4.3513 4.3042317,-4.3513 z"
         style="fill:#c3bd00;fill-opacity:1;stroke:none" />
    </g>
  </g>
</svg>
